<svg width="188" height="188" viewBox="0 0 188 188" fill="none" xmlns="http://www.w3.org/2000/svg">
<path d="M0 0V11.6H130.7C145.3 11.6 157.2 23.8 157.2 38.9V188H188V57.6C188 24.8 161.4 0 132.2 0H0ZM76.6 98.7L0 47.9V62.7L68.9 108.3C81.2 116.4 84.3 134 76 147.5L50.8 188H87.5L91.5 181.5C110.9 149.8 99.7 113.9 76.6 98.7ZM37.5 115.1L0 75.1V92.9L27.9 122.7C38 133.5 37.3 151.4 26.1 162.5C19.6 168.9 0 188 0 188H41.3C61.2 155.4 51.7 130.3 37.5 115.1ZM147.9 120.5C154.5 89.3 138.5 56 105.9 48.3L0 23.4V36.1L102 60.2C116.2 63.4 125.2 78.7 121.9 94.4L102.2 188H133.7L147.9 120.5Z" fill="#232645"/>
</svg>
